HIERARCHY
ROOT Hips
{
	OFFSET -0.001795 -0.223333 0.028219
	CHANNELS 6 Xposition Yposition Zposition Zrotation Yrotation Xrotation 
	JOINT LeftUpLeg
	{
		OFFSET 0.069520 -0.091406 -0.006815
		CHANNELS 3 Zrotation Yrotation Xrotation
		JOINT LeftLeg
		{
			OFFSET 0.034277 -0.375199 -0.004496
			CHANNELS 3 Zrotation Yrotation Xrotation
			JOINT LeftFoot
			{
				OFFSET -0.013596 -0.397961 -0.043693
				CHANNELS 3 Zrotation Yrotation Xrotation
				JOINT LeftToe
				{
					OFFSET 0.026358 -0.055791 0.119288
					CHANNELS 3 Zrotation Yrotation Xrotation
					End Site
					{
						OFFSET 0.000000 0.000000 0.000000
					}
				}
			}
		}
	}
	JOINT RightUpLeg
	{
		OFFSET -0.067670 -0.090522 -0.004320
		CHANNELS 3 Zrotation Yrotation Xrotation
		JOINT RightLeg
		{
			OFFSET -0.038290 -0.382569 -0.008850
			CHANNELS 3 Zrotation Yrotation Xrotation
			JOINT RightFoot
			{
				OFFSET 0.015774 -0.398415 -0.042312
				CHANNELS 3 Zrotation Yrotation Xrotation
				JOINT RightToe
				{
					OFFSET -0.025372 -0.048144 0.123348
					CHANNELS 3 Zrotation Yrotation Xrotation
					End Site
					{
						OFFSET 0.000000 0.000000 0.000000
					}
				}
			}
		}
	}
	JOINT Spine
	{
		OFFSET -0.002533 0.108963 -0.026696
		CHANNELS 3 Zrotation Yrotation Xrotation
		JOINT Spine1
		{
			OFFSET 0.005487 0.135180 0.001092
			CHANNELS 3 Zrotation Yrotation Xrotation
			JOINT Spine2
			{
				OFFSET 0.001457 0.052922 0.025425
				CHANNELS 3 Zrotation Yrotation Xrotation
				JOINT Neck
				{
					OFFSET -0.002778 0.213870 -0.042857
					CHANNELS 3 Zrotation Yrotation Xrotation
					JOINT Head
					{
						OFFSET 0.005152 0.064970 0.051349
						CHANNELS 3 Zrotation Yrotation Xrotation
						End Site
						{
							OFFSET 0.000000 0.000000 0.000000
						}
					}
				}
				JOINT LeftShoulder
				{
					OFFSET 0.078845 0.121749 -0.034090
					CHANNELS 3 Zrotation Yrotation Xrotation
					JOINT LeftArm
					{
						OFFSET 0.090977 0.030469 -0.008868
						CHANNELS 3 Zrotation Yrotation Xrotation
						JOINT LeftForeArm
						{
							OFFSET 0.259612 -0.012772 -0.027456
							CHANNELS 3 Zrotation Yrotation Xrotation
							JOINT LeftHand
							{
								OFFSET 0.249234 0.008986 -0.001171
								CHANNELS 3 Zrotation Yrotation Xrotation
								End Site
								{
									OFFSET 0.000000 0.000000 0.000000
								}
							}
						}
					}
				}
				JOINT RightShoulder
				{
					OFFSET -0.081759 0.118833 -0.038615
					CHANNELS 3 Zrotation Yrotation Xrotation
					JOINT RightArm
					{
						OFFSET -0.096012 0.032551 -0.009143
						CHANNELS 3 Zrotation Yrotation Xrotation
						JOINT RightForeArm
						{
							OFFSET -0.253742 -0.013329 -0.021401
							CHANNELS 3 Zrotation Yrotation Xrotation
							JOINT RightHand
							{
								OFFSET -0.255298 0.007772 -0.005559
								CHANNELS 3 Zrotation Yrotation Xrotation
								End Site
								{
									OFFSET 0.000000 0.000000 0.000000
								}
							}
						}
					}
				}
			}
		}
	}
}
MOTION
Frames: 10
Frame Time: 0.050000
0.144430 0.746322 0.657729 -8.061891 43.162143 -2.525473 49.660611 -3.162821 -38.116124 -49.255555 9.805253 32.731001 14.829850 31.506259 0.722007 0.000000 0.000000 0.000000 -14.492702 -4.090157 -17.273631 -13.570522 -4.634971 62.340000 -8.161527 -21.951893 -7.217177 0.000000 0.000000 0.000000 -23.687355 -0.892992 15.572222 -4.969185 2.294041 -25.763135 -2.083778 21.869093 26.221511 -0.793834 7.950122 -23.178464 0.000000 0.000000 0.000000 -15.402391 -12.836771 -6.734093 -20.307327 -11.733053 0.956238 -1.588580 -45.199961 -2.786337 0.000000 0.000000 0.000000 -9.632101 -7.235173 -5.722236 0.885741 1.041618 -0.193228 -25.760428 37.083537 -0.769422 0.000000 0.000000 0.000000 
0.146045 0.745593 0.655647 -7.411020 43.280532 -1.765568 49.461124 -3.099545 -38.816566 -50.602033 10.160092 32.534103 15.173544 32.275444 0.722916 0.000000 0.000000 0.000000 -14.894428 -4.430620 -18.234239 -14.042353 -4.208916 62.461727 -8.242724 -22.116522 -7.216077 0.000000 0.000000 0.000000 -24.383308 -0.894922 15.861626 -4.581145 2.199175 -26.069729 -2.000155 21.719103 26.322947 -1.963636 8.414377 -22.601457 0.000000 0.000000 0.000000 -15.599640 -13.991079 -6.326445 -21.346372 -12.513974 1.114955 -0.342127 -42.484621 -2.963986 0.000000 0.000000 0.000000 -9.382203 -7.660609 -5.782019 0.189024 1.416193 -0.086786 -32.820495 38.951523 -2.403846 0.000000 0.000000 0.000000 
0.147716 0.744786 0.654661 -7.090929 43.748058 -1.417219 49.758524 -3.185070 -39.346349 -51.530483 10.249526 32.063988 15.635692 32.895137 2.285927 0.000000 0.000000 0.000000 -14.824984 -4.510349 -18.470701 -14.692199 -3.990969 62.684388 -8.272935 -22.364282 -7.633232 0.000000 0.000000 0.000000 -24.596746 -0.928392 15.965614 -4.089874 2.094459 -26.317996 -2.175059 22.083284 26.663206 -2.153854 8.583830 -22.566169 0.000000 0.000000 0.000000 -15.893609 -14.529112 -6.464754 -21.612794 -12.876167 1.212373 -0.734582 -41.004436 -2.623729 0.000000 0.000000 0.000000 -8.636877 -7.754072 -5.620042 -0.142243 2.259087 -0.075320 -40.933346 41.621475 -4.702702 0.000000 0.000000 0.000000 
0.149590 0.743397 0.654256 -6.811494 44.707839 -1.146065 49.890683 -3.358208 -39.870305 -52.296349 10.289845 31.919640 15.644440 32.960395 2.376760 0.000000 0.000000 0.000000 -15.127805 -4.789323 -18.772073 -14.388453 -4.579091 63.065259 -8.551945 -23.452529 -8.522242 0.000000 0.000000 0.000000 -24.918258 -0.984739 16.345152 -4.528984 2.247120 -25.629132 -1.764378 21.692079 25.434432 -3.009716 8.667979 -21.325459 0.000000 0.000000 0.000000 -14.888544 -14.337526 -5.889837 -22.738058 -12.153781 1.083052 -1.799062 -41.877545 -2.479564 0.000000 0.000000 0.000000 -8.018717 -7.579019 -5.327998 -0.035707 3.995084 -0.179667 -49.476548 44.988597 -8.036079 0.000000 0.000000 0.000000 
0.151610 0.741932 0.654053 -6.815137 45.757643 -1.256243 49.981263 -3.497035 -40.630364 -52.693721 10.310564 32.006662 15.355650 32.488695 2.445982 0.000000 0.000000 0.000000 -14.870819 -4.794827 -18.733005 -14.898167 -4.688188 63.357362 -8.439317 -23.504231 -9.346211 0.000000 0.000000 0.000000 -25.075749 -1.064364 16.577235 -4.935128 2.258753 -26.349851 -0.282742 22.566239 26.339999 -2.819894 8.726268 -20.901951 0.000000 0.000000 0.000000 -14.658854 -15.025832 -5.793965 -22.446999 -10.804744 0.863933 -4.258089 -43.091786 -1.691055 0.000000 0.000000 0.000000 -6.591932 -6.963415 -4.721678 -0.153266 4.992795 -0.211563 -56.456056 47.187341 -11.347832 0.000000 0.000000 0.000000 
0.153680 0.740826 0.653901 -6.618150 46.553133 -1.373022 49.321822 -3.662912 -41.180649 -52.426063 10.223576 32.727531 15.125498 31.973017 3.065018 0.000000 0.000000 0.000000 -14.811697 -4.802934 -18.394806 -14.713056 -5.281752 63.610395 -8.706782 -24.582642 -9.916307 0.000000 0.000000 0.000000 -25.328330 -1.189053 16.240327 -5.448544 2.425669 -25.519523 0.286851 23.604970 25.700246 -2.760112 8.666353 -20.703794 0.000000 0.000000 0.000000 -13.316430 -14.755603 -5.526935 -23.389175 -10.323263 0.767135 -5.989474 -44.100428 -1.465593 0.000000 0.000000 0.000000 -6.321518 -5.452926 -4.036098 2.013614 6.436348 -0.569162 -61.022498 51.096671 -14.433137 0.000000 0.000000 0.000000 
0.155797 0.739714 0.653762 -6.849172 47.170544 -1.949029 49.018304 -3.749563 -41.745527 -52.374970 10.477047 33.972317 14.616711 31.290888 2.024342 0.000000 0.000000 0.000000 -14.485351 -4.717431 -18.219685 -14.438059 -5.897100 64.000947 -8.800356 -25.292434 -10.887426 0.000000 0.000000 0.000000 -25.259646 -1.245848 16.439993 -6.419991 2.582270 -25.713744 2.089468 24.968800 26.101979 -2.409358 8.607898 -20.159415 0.000000 0.000000 0.000000 -13.371799 -15.139065 -5.929222 -23.699561 -8.522960 0.639491 -8.328225 -45.454728 -0.824878 0.000000 0.000000 0.000000 -5.755099 -4.346376 -3.424613 3.450626 7.860852 -0.769200 -64.997315 54.228333 -17.569173 0.000000 0.000000 0.000000 
0.157981 0.739859 0.653827 -6.613712 47.927775 -2.237115 47.997695 -3.906290 -42.499462 -50.994196 10.356479 35.767788 13.608439 29.389323 2.509251 0.000000 0.000000 0.000000 -14.495466 -4.680336 -17.485997 -14.182886 -6.622026 64.401935 -8.773894 -25.638381 -11.779071 0.000000 0.000000 0.000000 -25.257367 -1.348560 16.237375 -7.149149 2.732628 -25.458734 3.256226 26.700691 26.347750 -2.598868 8.647919 -19.222753 0.000000 0.000000 0.000000 -13.225030 -14.876804 -6.640882 -24.565792 -7.620134 0.621487 -11.067635 -46.434827 -0.100109 0.000000 0.000000 0.000000 -6.462199 -2.658121 -3.009045 6.162278 8.054341 -1.042730 -66.339954 54.794064 -17.377835 0.000000 0.000000 0.000000 
0.159980 0.739165 0.653995 -6.423151 48.606271 -2.513584 47.458996 -4.028558 -43.135244 -50.263347 10.438379 37.313076 12.661274 27.672267 2.032500 0.000000 0.000000 0.000000 -14.931514 -4.855605 -17.063535 -13.613347 -7.429804 64.768366 -9.008447 -26.535101 -12.202977 0.000000 0.000000 0.000000 -25.212765 -1.397856 16.464610 -8.428825 2.920492 -25.526997 5.149148 28.169528 26.274433 -1.778349 8.103391 -17.818147 0.000000 0.000000 0.000000 -13.083066 -14.459236 -7.349669 -25.912711 -6.120113 0.515553 -14.108719 -47.591384 0.683428 0.000000 0.000000 0.000000 -6.614772 -1.606621 -2.647666 7.332116 8.474842 -1.147517 -67.913555 54.177412 -17.094241 0.000000 0.000000 0.000000 
0.161656 0.739017 0.654372 -5.741253 49.567585 -2.227181 47.028717 -4.253940 -43.788523 -49.493131 10.178591 38.048944 11.839736 26.131283 2.698208 0.000000 0.000000 0.000000 -15.291355 -5.031437 -16.620543 -13.606084 -8.104512 65.629415 -8.955856 -26.573819 -12.919326 0.000000 0.000000 0.000000 -25.025826 -1.454000 16.434472 -9.659261 3.150272 -24.971266 6.118314 29.490813 26.076243 -1.708450 7.891292 -17.009940 0.000000 0.000000 0.000000 -12.022358 -13.795890 -7.475335 -27.301484 -5.829897 0.431629 -16.762079 -48.514670 1.151177 0.000000 0.000000 0.000000 -8.287481 -0.283170 -2.810285 9.914888 7.932230 -1.341724 -68.714795 51.811455 -14.458688 0.000000 0.000000 0.000000 
